<mxfile host="app.diagrams.net" modified="2020-08-24T00:24:12.262Z" agent="5.0 (Windows NT 10.0; Win64; x64) AppleWebKit/537.36 (KHTML, like Gecko) Chrome/84.0.4147.135 Safari/537.36" etag="N2_9nH-Tb4i9qsl8bzkr" version="13.6.4" type="github">
  <diagram id="kgpKYQtTHZ0yAKxKKP6v" name="Page-1">
    <mxGraphModel dx="1038" dy="499" grid="1" gridSize="10" guides="1" tooltips="1" connect="1" arrows="1" fold="1" page="1" pageScale="1" pageWidth="850" pageHeight="1100" math="0" shadow="0" extFonts="Old Standard TT^https://fonts.googleapis.com/css?family=Old+Standard+TT">
      <root>
        <mxCell id="0" />
        <mxCell id="1" parent="0" />
        <mxCell id="won6xVCmw4BPkQLx-nKb-31" value="" style="endArrow=none;dashed=1;html=1;" edge="1" parent="1">
          <mxGeometry width="50" height="50" relative="1" as="geometry">
            <mxPoint x="248" y="580" as="sourcePoint" />
            <mxPoint x="248" y="165" as="targetPoint" />
            <Array as="points">
              <mxPoint x="248" y="255" />
            </Array>
          </mxGeometry>
        </mxCell>
        <mxCell id="won6xVCmw4BPkQLx-nKb-44" value="" style="html=1;points=[];perimeter=orthogonalPerimeter;strokeWidth=1;fillColor=#ffffff;" vertex="1" parent="1">
          <mxGeometry x="243" y="172" width="10" height="365" as="geometry" />
        </mxCell>
        <mxCell id="won6xVCmw4BPkQLx-nKb-17" value="&lt;font style=&quot;font-size: 14px&quot; face=&quot;Old Standard TT&quot;&gt;POST /login&lt;/font&gt;" style="html=1;verticalAlign=bottom;startArrow=none;endArrow=block;startSize=8;exitX=1.02;exitY=0.007;exitDx=0;exitDy=0;exitPerimeter=0;startFill=0;labelBackgroundColor=none;" edge="1" target="won6xVCmw4BPkQLx-nKb-16" parent="1" source="won6xVCmw4BPkQLx-nKb-44">
          <mxGeometry relative="1" as="geometry">
            <mxPoint x="249.29999999999995" y="171.88" as="sourcePoint" />
          </mxGeometry>
        </mxCell>
        <mxCell id="won6xVCmw4BPkQLx-nKb-10" value="&lt;font style=&quot;font-size: 13px&quot; face=&quot;Old Standard TT&quot;&gt;&lt;b&gt;:Werkzeug.security&lt;/b&gt;&lt;/font&gt;" style="shape=umlLifeline;perimeter=lifelinePerimeter;whiteSpace=wrap;html=1;container=1;collapsible=0;recursiveResize=0;outlineConnect=0;" vertex="1" parent="1">
          <mxGeometry x="520" y="90" width="120" height="490" as="geometry" />
        </mxCell>
        <mxCell id="won6xVCmw4BPkQLx-nKb-11" value="&lt;font face=&quot;Old Standard TT&quot; size=&quot;1&quot;&gt;&lt;b style=&quot;font-size: 13px&quot;&gt;:PostgreSQL&lt;/b&gt;&lt;/font&gt;" style="shape=umlLifeline;perimeter=lifelinePerimeter;whiteSpace=wrap;html=1;container=1;collapsible=0;recursiveResize=0;outlineConnect=0;" vertex="1" parent="1">
          <mxGeometry x="860" y="90" width="100" height="490" as="geometry" />
        </mxCell>
        <mxCell id="won6xVCmw4BPkQLx-nKb-13" value="" style="html=1;points=[];perimeter=orthogonalPerimeter;" vertex="1" parent="won6xVCmw4BPkQLx-nKb-11">
          <mxGeometry x="45" y="93" width="10" height="61" as="geometry" />
        </mxCell>
        <mxCell id="won6xVCmw4BPkQLx-nKb-20" value="&lt;font style=&quot;font-size: 14px&quot; face=&quot;Old Standard TT&quot;&gt;find_user&lt;/font&gt;" style="edgeStyle=orthogonalEdgeStyle;html=1;align=left;spacingLeft=2;endArrow=block;rounded=0;entryX=1;entryY=0;labelBackgroundColor=none;" edge="1" target="won6xVCmw4BPkQLx-nKb-19" parent="won6xVCmw4BPkQLx-nKb-11">
          <mxGeometry relative="1" as="geometry">
            <mxPoint x="55" y="102.5" as="sourcePoint" />
            <Array as="points">
              <mxPoint x="80" y="102.5" />
            </Array>
          </mxGeometry>
        </mxCell>
        <mxCell id="won6xVCmw4BPkQLx-nKb-19" value="" style="html=1;points=[];perimeter=orthogonalPerimeter;" vertex="1" parent="won6xVCmw4BPkQLx-nKb-11">
          <mxGeometry x="50" y="122.5" width="10" height="22" as="geometry" />
        </mxCell>
        <mxCell id="won6xVCmw4BPkQLx-nKb-14" value="&lt;font face=&quot;Old Standard TT&quot; style=&quot;font-size: 14px&quot;&gt;get_user_by_email&lt;/font&gt;" style="html=1;verticalAlign=bottom;endArrow=block;entryX=0;entryY=0;labelBackgroundColor=none;" edge="1" target="won6xVCmw4BPkQLx-nKb-13" parent="1">
          <mxGeometry relative="1" as="geometry">
            <mxPoint x="410.1" y="182.0000000000001" as="sourcePoint" />
          </mxGeometry>
        </mxCell>
        <mxCell id="won6xVCmw4BPkQLx-nKb-15" value="&lt;font style=&quot;font-size: 14px&quot; face=&quot;Old Standard TT&quot;&gt;User&lt;/font&gt;" style="html=1;verticalAlign=bottom;endArrow=open;dashed=1;endSize=8;exitX=-0.024;exitY=0.967;exitDx=0;exitDy=0;exitPerimeter=0;labelBackgroundColor=none;entryX=1.017;entryY=0.905;entryDx=0;entryDy=0;entryPerimeter=0;" edge="1" source="won6xVCmw4BPkQLx-nKb-13" parent="1" target="won6xVCmw4BPkQLx-nKb-16">
          <mxGeometry relative="1" as="geometry">
            <mxPoint x="410.26744186046506" y="242" as="targetPoint" />
            <mxPoint x="900" y="242" as="sourcePoint" />
          </mxGeometry>
        </mxCell>
        <mxCell id="won6xVCmw4BPkQLx-nKb-22" value="" style="html=1;points=[];perimeter=orthogonalPerimeter;" vertex="1" parent="1">
          <mxGeometry x="575" y="269" width="10" height="241" as="geometry" />
        </mxCell>
        <mxCell id="won6xVCmw4BPkQLx-nKb-23" value="&lt;font style=&quot;font-size: 14px&quot; face=&quot;Old Standard TT&quot;&gt;check_password_hash&lt;/font&gt;" style="verticalAlign=bottom;endArrow=block;entryX=0;entryY=0;labelBackgroundColor=none;html=1;" edge="1" target="won6xVCmw4BPkQLx-nKb-22" parent="1" source="won6xVCmw4BPkQLx-nKb-21">
          <mxGeometry relative="1" as="geometry">
            <mxPoint x="500" y="269" as="sourcePoint" />
          </mxGeometry>
        </mxCell>
        <mxCell id="won6xVCmw4BPkQLx-nKb-24" value="&lt;font style=&quot;font-size: 14px&quot; face=&quot;Old Standard TT&quot;&gt;check succeeded&lt;/font&gt;" style="html=1;verticalAlign=bottom;endArrow=open;dashed=1;endSize=8;exitX=0.019;exitY=0.277;exitDx=0;exitDy=0;exitPerimeter=0;entryX=1.032;entryY=0.918;entryDx=0;entryDy=0;entryPerimeter=0;labelBackgroundColor=none;" edge="1" source="won6xVCmw4BPkQLx-nKb-22" parent="1" target="won6xVCmw4BPkQLx-nKb-21">
          <mxGeometry relative="1" as="geometry">
            <mxPoint x="409.92857142857144" y="335.86800000000005" as="targetPoint" />
          </mxGeometry>
        </mxCell>
        <mxCell id="won6xVCmw4BPkQLx-nKb-28" value="&lt;font face=&quot;Old Standard TT&quot; style=&quot;font-size: 13px&quot;&gt;&lt;b&gt;Actor&lt;/b&gt;&lt;/font&gt;" style="shape=umlActor;verticalLabelPosition=bottom;verticalAlign=top;html=1;" vertex="1" parent="1">
          <mxGeometry x="233" y="80" width="30" height="60" as="geometry" />
        </mxCell>
        <mxCell id="won6xVCmw4BPkQLx-nKb-9" value="&lt;font face=&quot;Old Standard TT&quot; style=&quot;font-size: 13px&quot;&gt;&lt;b&gt;:Flask App&lt;/b&gt;&lt;/font&gt;" style="shape=umlLifeline;perimeter=lifelinePerimeter;whiteSpace=wrap;html=1;container=1;collapsible=0;recursiveResize=0;outlineConnect=0;" vertex="1" parent="1">
          <mxGeometry x="360" y="90" width="100" height="490" as="geometry" />
        </mxCell>
        <mxCell id="won6xVCmw4BPkQLx-nKb-16" value="" style="html=1;points=[];perimeter=orthogonalPerimeter;" vertex="1" parent="won6xVCmw4BPkQLx-nKb-9">
          <mxGeometry x="45" y="80" width="10" height="80" as="geometry" />
        </mxCell>
        <mxCell id="won6xVCmw4BPkQLx-nKb-21" value="" style="html=1;points=[];perimeter=orthogonalPerimeter;" vertex="1" parent="won6xVCmw4BPkQLx-nKb-9">
          <mxGeometry x="45" y="172" width="10" height="80" as="geometry" />
        </mxCell>
        <mxCell id="won6xVCmw4BPkQLx-nKb-37" value="" style="html=1;points=[];perimeter=orthogonalPerimeter;strokeWidth=1;fillColor=#ffffff;" vertex="1" parent="won6xVCmw4BPkQLx-nKb-9">
          <mxGeometry x="45" y="268" width="10" height="82" as="geometry" />
        </mxCell>
        <mxCell id="won6xVCmw4BPkQLx-nKb-56" value="" style="html=1;points=[];perimeter=orthogonalPerimeter;shadow=0;strokeWidth=1;fillColor=#ffffff;" vertex="1" parent="won6xVCmw4BPkQLx-nKb-9">
          <mxGeometry x="45" y="410" width="10" height="35" as="geometry" />
        </mxCell>
        <mxCell id="won6xVCmw4BPkQLx-nKb-43" value="&lt;font face=&quot;Old Standard TT&quot; style=&quot;font-size: 14px&quot;&gt;JWT&lt;/font&gt;" style="html=1;verticalAlign=bottom;endArrow=open;dashed=1;endSize=8;exitX=0.014;exitY=0.943;exitDx=0;exitDy=0;exitPerimeter=0;entryX=1.078;entryY=0.728;entryDx=0;entryDy=0;entryPerimeter=0;labelBackgroundColor=none;" edge="1" parent="1">
          <mxGeometry relative="1" as="geometry">
            <mxPoint x="405.14" y="434.04100000000005" as="sourcePoint" />
            <mxPoint x="253.77999999999997" y="433.9039999999999" as="targetPoint" />
          </mxGeometry>
        </mxCell>
        <mxCell id="won6xVCmw4BPkQLx-nKb-49" value="&lt;font face=&quot;Old Standard TT&quot; style=&quot;font-size: 13px&quot;&gt;&lt;b&gt;:JWTManager&lt;/b&gt;&lt;/font&gt;" style="shape=umlLifeline;perimeter=lifelinePerimeter;whiteSpace=wrap;html=1;container=1;collapsible=0;recursiveResize=0;outlineConnect=0;" vertex="1" parent="1">
          <mxGeometry x="700" y="90" width="100" height="490" as="geometry" />
        </mxCell>
        <mxCell id="won6xVCmw4BPkQLx-nKb-38" value="" style="html=1;points=[];perimeter=orthogonalPerimeter;strokeWidth=1;fillColor=#ffffff;" vertex="1" parent="1">
          <mxGeometry x="745" y="368" width="10" height="62" as="geometry" />
        </mxCell>
        <mxCell id="won6xVCmw4BPkQLx-nKb-52" value="&lt;font style=&quot;font-size: 14px&quot; face=&quot;Old Standard TT&quot;&gt;build JWT&lt;/font&gt;" style="edgeStyle=orthogonalEdgeStyle;html=1;align=left;spacingLeft=2;endArrow=block;rounded=0;entryX=1;entryY=0;labelBackgroundColor=none;" edge="1" parent="1" target="won6xVCmw4BPkQLx-nKb-53">
          <mxGeometry relative="1" as="geometry">
            <mxPoint x="755" y="375" as="sourcePoint" />
            <Array as="points">
              <mxPoint x="780" y="375" />
            </Array>
          </mxGeometry>
        </mxCell>
        <mxCell id="won6xVCmw4BPkQLx-nKb-53" value="" style="html=1;points=[];perimeter=orthogonalPerimeter;strokeWidth=1;fillColor=#ffffff;" vertex="1" parent="1">
          <mxGeometry x="750" y="395" width="10" height="25" as="geometry" />
        </mxCell>
        <mxCell id="won6xVCmw4BPkQLx-nKb-36" value="[permission granted]" style="text;align=center;fontStyle=0;verticalAlign=middle;spacingLeft=3;spacingRight=3;strokeColor=none;rotatable=0;points=[[0,0.5],[1,0.5]];portConstraint=eastwest;dashed=1;fontSize=14;fontFamily=Old Standard TT;labelBackgroundColor=none;" vertex="1" parent="1">
          <mxGeometry x="278" y="316.75" width="111" height="16.5" as="geometry" />
        </mxCell>
        <mxCell id="won6xVCmw4BPkQLx-nKb-55" value="&lt;font style=&quot;font-size: 14px&quot; face=&quot;Old Standard TT&quot;&gt;check failed&lt;/font&gt;" style="html=1;verticalAlign=bottom;endArrow=open;dashed=1;endSize=8;exitX=-0.058;exitY=0.979;exitDx=0;exitDy=0;exitPerimeter=0;labelBackgroundColor=none;" edge="1" parent="1" source="won6xVCmw4BPkQLx-nKb-22" target="won6xVCmw4BPkQLx-nKb-56">
          <mxGeometry relative="1" as="geometry">
            <mxPoint x="450" y="505" as="targetPoint" />
            <mxPoint x="575" y="504.6809999999999" as="sourcePoint" />
          </mxGeometry>
        </mxCell>
        <mxCell id="won6xVCmw4BPkQLx-nKb-57" value="&lt;font style=&quot;font-size: 14px&quot; face=&quot;Old Standard TT&quot;&gt;access denied error&lt;/font&gt;" style="html=1;verticalAlign=bottom;endArrow=open;dashed=1;endSize=8;entryX=0.962;entryY=0.913;entryDx=0;entryDy=0;entryPerimeter=0;labelBackgroundColor=none;" edge="1" parent="1" source="won6xVCmw4BPkQLx-nKb-56">
          <mxGeometry relative="1" as="geometry">
            <mxPoint x="415.1400000000001" y="470.04100000000005" as="sourcePoint" />
            <mxPoint x="252.62000000000012" y="527.9839999999999" as="targetPoint" />
          </mxGeometry>
        </mxCell>
        <mxCell id="won6xVCmw4BPkQLx-nKb-58" value="[permission denied]" style="text;align=center;fontStyle=0;verticalAlign=middle;spacingLeft=3;spacingRight=3;strokeColor=none;rotatable=0;points=[[0,0.5],[1,0.5]];portConstraint=eastwest;dashed=1;fontSize=14;fontFamily=Old Standard TT;" vertex="1" parent="1">
          <mxGeometry x="265" y="461" width="121" height="16.5" as="geometry" />
        </mxCell>
        <mxCell id="won6xVCmw4BPkQLx-nKb-35" value="" style="line;strokeWidth=2;fillColor=none;align=left;verticalAlign=middle;spacingTop=-1;spacingLeft=3;spacingRight=3;rotatable=0;labelPosition=right;points=[];portConstraint=eastwest;dashed=1;" vertex="1" parent="1">
          <mxGeometry x="210" y="451" width="784" height="8" as="geometry" />
        </mxCell>
        <mxCell id="won6xVCmw4BPkQLx-nKb-39" value="&lt;font style=&quot;font-size: 14px&quot; face=&quot;Old Standard TT&quot;&gt;create_access_token&lt;/font&gt;" style="html=1;verticalAlign=bottom;endArrow=block;entryX=0;entryY=0;exitX=1.033;exitY=0.11;exitDx=0;exitDy=0;exitPerimeter=0;labelBackgroundColor=none;" edge="1" target="won6xVCmw4BPkQLx-nKb-38" parent="1" source="won6xVCmw4BPkQLx-nKb-37">
          <mxGeometry x="0.4933" relative="1" as="geometry">
            <mxPoint x="420" y="368" as="sourcePoint" />
            <mxPoint as="offset" />
          </mxGeometry>
        </mxCell>
        <mxCell id="won6xVCmw4BPkQLx-nKb-40" value="&lt;font style=&quot;font-size: 14px&quot; face=&quot;Old Standard TT&quot;&gt;JWT&lt;/font&gt;" style="html=1;verticalAlign=bottom;endArrow=open;dashed=1;endSize=8;exitX=0;exitY=0.95;labelBackgroundColor=none;entryX=1.037;entryY=0.844;entryDx=0;entryDy=0;entryPerimeter=0;" edge="1" source="won6xVCmw4BPkQLx-nKb-38" parent="1" target="won6xVCmw4BPkQLx-nKb-37">
          <mxGeometry x="-0.4834" relative="1" as="geometry">
            <mxPoint x="415" y="428" as="targetPoint" />
            <mxPoint as="offset" />
          </mxGeometry>
        </mxCell>
        <mxCell id="won6xVCmw4BPkQLx-nKb-59" value="alt" style="shape=umlFrame;whiteSpace=wrap;html=1;shadow=0;" vertex="1" parent="1">
          <mxGeometry x="210" y="300" width="784" height="270" as="geometry" />
        </mxCell>
      </root>
    </mxGraphModel>
  </diagram>
</mxfile>
